<svg class="lds-spinner" width="100px"  height="100px"  xmlns="http://www.w3.org/2000/svg" xmlns:xlink="http://www.w3.org/1999/xlink" viewBox="0 0 100 100" preserveAspectRatio="xMidYMid" style="background: none;"><g transform="rotate(0 50 50)">
  <rect x="48" y="27" rx="4.8" ry="2.7" width="4" height="14" fill="#454545">
    <animate attributeName="opacity" values="1;0" times="0;1" dur="1s" begin="-0.875s" repeatCount="indefinite"></animate>
  </rect>
</g><g transform="rotate(45 50 50)">
  <rect x="48" y="27" rx="4.8" ry="2.7" width="4" height="14" fill="#454545">
    <animate attributeName="opacity" values="1;0" times="0;1" dur="1s" begin="-0.75s" repeatCount="indefinite"></animate>
  </rect>
</g><g transform="rotate(90 50 50)">
  <rect x="48" y="27" rx="4.8" ry="2.7" width="4" height="14" fill="#454545">
    <animate attributeName="opacity" values="1;0" times="0;1" dur="1s" begin="-0.625s" repeatCount="indefinite"></animate>
  </rect>
</g><g transform="rotate(135 50 50)">
  <rect x="48" y="27" rx="4.8" ry="2.7" width="4" height="14" fill="#454545">
    <animate attributeName="opacity" values="1;0" times="0;1" dur="1s" begin="-0.5s" repeatCount="indefinite"></animate>
  </rect>
</g><g transform="rotate(180 50 50)">
  <rect x="48" y="27" rx="4.8" ry="2.7" width="4" height="14" fill="#454545">
    <animate attributeName="opacity" values="1;0" times="0;1" dur="1s" begin="-0.375s" repeatCount="indefinite"></animate>
  </rect>
</g><g transform="rotate(225 50 50)">
  <rect x="48" y="27" rx="4.8" ry="2.7" width="4" height="14" fill="#454545">
    <animate attributeName="opacity" values="1;0" times="0;1" dur="1s" begin="-0.25s" repeatCount="indefinite"></animate>
  </rect>
</g><g transform="rotate(270 50 50)">
  <rect x="48" y="27" rx="4.8" ry="2.7" width="4" height="14" fill="#454545">
    <animate attributeName="opacity" values="1;0" times="0;1" dur="1s" begin="-0.125s" repeatCount="indefinite"></animate>
  </rect>
</g><g transform="rotate(315 50 50)">
  <rect x="48" y="27" rx="4.8" ry="2.7" width="4" height="14" fill="#454545">
    <animate attributeName="opacity" values="1;0" times="0;1" dur="1s" begin="0s" repeatCount="indefinite"></animate>
  </rect>
</g></svg>